<?xml version="1.0" encoding="UTF-8" standalone="no"?>
<!-- Created with Inkscape (http://www.inkscape.org/) -->

<svg
   width="132.42627mm"
   height="21.064899mm"
   viewBox="0 0 132.42627 21.064899"
   version="1.1"
   id="svg5"
   inkscape:version="1.1 (c68e22c387, 2021-05-23)"
   sodipodi:docname="logo.svg"
   xmlns:inkscape="http://www.inkscape.org/namespaces/inkscape"
   xmlns:sodipodi="http://sodipodi.sourceforge.net/DTD/sodipodi-0.dtd"
   xmlns="http://www.w3.org/2000/svg"
   xmlns:svg="http://www.w3.org/2000/svg">
  <sodipodi:namedview
     id="namedview7"
     pagecolor="#ffffff"
     bordercolor="#666666"
     borderopacity="1.0"
     inkscape:pageshadow="2"
     inkscape:pageopacity="0.0"
     inkscape:pagecheckerboard="0"
     inkscape:document-units="mm"
     showgrid="false"
     inkscape:zoom="1.3102506"
     inkscape:cx="227.4374"
     inkscape:cy="48.464011"
     inkscape:window-width="1366"
     inkscape:window-height="705"
     inkscape:window-x="-8"
     inkscape:window-y="-8"
     inkscape:window-maximized="1"
     inkscape:current-layer="layer1" />
  <defs
     id="defs2">
    <rect
       x="107.93459"
       y="444.69049"
       width="502.97516"
       height="140.31496"
       id="rect1386" />
  </defs>
  <g
     inkscape:label="Camada 1"
     inkscape:groupmode="layer"
     id="layer1"
     transform="translate(-20.429455,-128.67251)">
    <g
       id="g2958"
       transform="matrix(1.767756,0,0,1.7717018,-12.934063,-99.288479)">
      <text
         xml:space="preserve"
         transform="matrix(0.34382507,0,0,0.34151024,-18.886434,-24.467141)"
         id="text1384"
         style="font-style:normal;font-weight:normal;font-size:40px;line-height:1.25;font-family:sans-serif;letter-spacing:0px;white-space:pre;shape-inside:url(#rect1386);fill:#ffffff;fill-opacity:1;stroke:none"><tspan
           x="107.93555"
           y="481.18462"
           id="tspan3090">BCG4    ƎS</tspan></text>
      <g
         id="g2938">
        <path
           style="fill:#ffffff;fill-opacity:1;stroke:#000000;stroke-width:0.290018px;stroke-linecap:butt;stroke-linejoin:miter;stroke-opacity:1"
           d="m 60.567896,129.63455 c -4.804826,-0.14115 -2.491116,11.06104 -0.856761,10.64181 1.657391,-0.42513 2.03658,-2.67766 2.598837,-4.23528 0.349452,-0.96808 3.01849,-1.49343 3.569829,0.34845 0.280312,0.93645 1.648662,4.71078 2.94154,3.91362 1.3211,-0.81456 1.52079,-4.24641 1.542167,-6.70139 -0.04511,-1.63296 0.0034,-3.80533 -2.256133,-3.94042 -0.812988,-0.0486 -1.804789,0.49779 -2.770188,1.3939 -0.622532,0.57785 -2.333517,0.33228 -2.741628,-0.0536 -0.649539,-0.61426 -1.121953,-1.34044 -2.027663,-1.36706 z"
           id="path80246"
           sodipodi:nodetypes="ssssscssss" />
        <path
           style="fill:#000000;fill-opacity:1;stroke:none;stroke-width:1.88976;stroke-linecap:round;stroke-linejoin:round;stroke-miterlimit:4;stroke-dasharray:none;stroke-opacity:1;paint-order:normal"
           id="path90591"
           sodipodi:type="arc"
           sodipodi:cx="60.114723"
           sodipodi:cy="132.24548"
           sodipodi:rx="1.005554"
           sodipodi:ry="0.94382828"
           sodipodi:start="0"
           sodipodi:end="6.2657505"
           sodipodi:arc-type="arc"
           sodipodi:open="true"
           d="m 61.120277,132.24548 a 1.005554,0.94382828 0 0 1 -1.001171,0.94382 1.005554,0.94382828 0 0 1 -1.009899,-0.93559 1.005554,0.94382828 0 0 1 0.992368,-0.95197 1.005554,0.94382828 0 0 1 1.018549,0.92729" />
        <path
           style="fill:#000000;fill-opacity:1;stroke:none;stroke-width:1.88976;stroke-linecap:round;stroke-linejoin:round;stroke-miterlimit:4;stroke-dasharray:none;stroke-opacity:1;paint-order:normal"
           id="path90591-4"
           sodipodi:type="arc"
           sodipodi:cx="66.68129"
           sodipodi:cy="134.63806"
           sodipodi:rx="1.005554"
           sodipodi:ry="0.94382828"
           sodipodi:start="0"
           sodipodi:end="6.2657505"
           sodipodi:arc-type="arc"
           sodipodi:open="true"
           d="m 67.686844,134.63806 a 1.005554,0.94382828 0 0 1 -1.001171,0.94382 1.005554,0.94382828 0 0 1 -1.009899,-0.93559 1.005554,0.94382828 0 0 1 0.992367,-0.95198 1.005554,0.94382828 0 0 1 1.01855,0.9273" />
        <path
           style="fill:none;fill-opacity:1;stroke:#000000;stroke-width:0.1;stroke-linecap:round;stroke-linejoin:round;stroke-miterlimit:4;stroke-dasharray:none;stroke-opacity:1;paint-order:normal"
           id="path90591-4-2"
           sodipodi:type="arc"
           sodipodi:cx="68.235535"
           sodipodi:cy="131.25656"
           sodipodi:rx="0.34467164"
           sodipodi:ry="0.32351407"
           sodipodi:start="0"
           sodipodi:end="6.2657505"
           sodipodi:arc-type="arc"
           sodipodi:open="true"
           d="m 68.580206,131.25656 a 0.34467164,0.32351407 0 0 1 -0.343169,0.32351 0.34467164,0.32351407 0 0 1 -0.346161,-0.32069 0.34467164,0.32351407 0 0 1 0.340152,-0.32631 0.34467164,0.32351407 0 0 1 0.349126,0.31785" />
        <path
           style="fill:none;fill-opacity:1;stroke:#000000;stroke-width:0.1;stroke-linecap:round;stroke-linejoin:round;stroke-miterlimit:4;stroke-dasharray:none;stroke-opacity:1;paint-order:normal"
           id="path90758"
           sodipodi:type="arc"
           sodipodi:cx="67.403587"
           sodipodi:cy="132.11623"
           sodipodi:rx="0.32447764"
           sodipodi:ry="0.30455968"
           sodipodi:start="0"
           sodipodi:end="6.2657505"
           sodipodi:arc-type="arc"
           sodipodi:open="true"
           d="m 67.728065,132.11623 a 0.32447764,0.30455968 0 0 1 -0.323063,0.30455 0.32447764,0.30455968 0 0 1 -0.32588,-0.3019 0.32447764,0.30455968 0 0 1 0.320223,-0.30719 0.32447764,0.30455968 0 0 1 0.328671,0.29923" />
        <path
           style="fill:none;fill-opacity:1;stroke:#000000;stroke-width:0.1;stroke-linecap:round;stroke-linejoin:round;stroke-miterlimit:4;stroke-dasharray:none;stroke-opacity:1;paint-order:normal"
           id="path91174"
           sodipodi:type="arc"
           sodipodi:cx="69.13446"
           sodipodi:cy="132.10703"
           sodipodi:rx="0.30933213"
           sodipodi:ry="0.29034385"
           sodipodi:start="0"
           sodipodi:end="6.2657505"
           sodipodi:arc-type="arc"
           sodipodi:open="true"
           d="m 69.443793,132.10703 a 0.30933213,0.29034385 0 0 1 -0.307984,0.29034 0.30933213,0.29034385 0 0 1 -0.310669,-0.28781 0.30933213,0.29034385 0 0 1 0.305276,-0.29285 0.30933213,0.29034385 0 0 1 0.31333,0.28525" />
        <path
           style="fill:none;fill-opacity:1;stroke:#000000;stroke-width:0.1;stroke-linecap:round;stroke-linejoin:round;stroke-miterlimit:4;stroke-dasharray:none;stroke-opacity:1;paint-order:normal"
           id="path91176"
           sodipodi:type="arc"
           sodipodi:cx="68.271919"
           sodipodi:cy="132.87442"
           sodipodi:rx="0.32447764"
           sodipodi:ry="0.30455968"
           sodipodi:start="0"
           sodipodi:end="6.2657505"
           sodipodi:arc-type="arc"
           sodipodi:open="true"
           d="m 68.596397,132.87442 a 0.32447764,0.30455968 0 0 1 -0.323063,0.30456 0.32447764,0.30455968 0 0 1 -0.32588,-0.3019 0.32447764,0.30455968 0 0 1 0.320222,-0.30719 0.32447764,0.30455968 0 0 1 0.328672,0.29922" />
        <path
           style="fill:none;stroke:#000000;stroke-width:0.290018px;stroke-linecap:butt;stroke-linejoin:miter;stroke-opacity:1"
           d="m 63.878175,131.37598 c -0.828202,-0.88459 0.860663,-0.46214 0.79964,-0.83097 -0.06088,-0.36799 -0.687225,-0.45307 -1.156676,-0.78573 -0.334677,-0.23717 0.05275,-0.52002 1.267431,-0.95495"
           id="path91445"
           sodipodi:nodetypes="cssc" />
        <path
           style="fill:none;stroke:#000000;stroke-width:0.290018px;stroke-linecap:butt;stroke-linejoin:miter;stroke-opacity:1"
           d="m 62.581905,130.96089 c 0,0 0.307109,1.87646 1.353,1.8765 1.045891,5e-5 1.433773,-1.85753 1.433773,-1.85753"
           id="path91959"
           sodipodi:nodetypes="czc" />
        <path
           style="fill:none;stroke:#000000;stroke-width:0.290018px;stroke-linecap:butt;stroke-linejoin:miter;stroke-opacity:1"
           d="m 63.127144,131.88019 c 0.242328,-0.12321 0.516536,-0.10763 0.767371,-0.0569 0.279394,0.0565 0.36035,0.19087 0.545239,0.15163 0.08833,-0.0188 0.20194,-0.17059 0.20194,-0.17059"
           id="path92659"
           sodipodi:nodetypes="cssc" />
        <path
           style="fill:none;stroke:#000000;stroke-width:0.403649px;stroke-linecap:butt;stroke-linejoin:miter;stroke-opacity:1"
           d="M 61.122733,135.2662 59.11213,135.244 Z"
           id="path93425" />
        <path
           style="fill:none;stroke:#000000;stroke-width:0.403649px;stroke-linecap:butt;stroke-linejoin:miter;stroke-opacity:1"
           d="m 60.116786,136.24763 0.0012,-1.94169 z"
           id="path93895"
           inkscape:transform-center-y="0.38199846"
           inkscape:transform-center-x="1.9870798e-05" />
      </g>
    </g>
  </g>
</svg>
