<?xml version="1.0" encoding="UTF-8" standalone="no"?>
<!-- Created with Inkscape (http://www.inkscape.org/) -->

<svg
   width="175.753006mm"
   height="20.879781mm"
   viewBox="0 0 75.753007 11.879781"
   version="1.1"
   id="svg5"
   inkscape:version="1.1 (c68e22c387, 2021-05-23)"
   sodipodi:docname="logo.svg"
   xmlns:inkscape="http://www.inkscape.org/namespaces/inkscape"
   xmlns:sodipodi="http://sodipodi.sourceforge.net/DTD/sodipodi-0.dtd"
   xmlns="http://www.w3.org/2000/svg"
   xmlns:svg="http://www.w3.org/2000/svg">
  <sodipodi:namedview
     id="namedview7"
     pagecolor="#ffffff"
     bordercolor="#666666"
     borderopacity="1.0"
     inkscape:pageshadow="2"
     inkscape:pageopacity="0.0"
     inkscape:pagecheckerboard="0"
     inkscape:document-units="mm"
     showgrid="false"
     inkscape:zoom="1.8529742"
     inkscape:cx="240.42429"
     inkscape:cy="28.332828"
     inkscape:window-width="1366"
     inkscape:window-height="705"
     inkscape:window-x="-8"
     inkscape:window-y="-8"
     inkscape:window-maximized="1"
     inkscape:current-layer="layer1" />
  <defs
     id="defs2">
    <rect
       x="107.93459"
       y="444.69049"
       width="502.97516"
       height="140.31496"
       id="rect1386" />
  </defs>
  <g
     inkscape:label="Camada 1"
     inkscape:groupmode="layer"
     id="layer1"
     transform="translate(-18.71085,-128.67306)">
    <g
       id="g94087"
       transform="matrix(1.1314082,0,0,1.061957,-7.6326473,-7.2924946)">
      <g
         id="g137">
        <text
           xml:space="preserve"
           transform="matrix(0.30389127,0,0,0.32158575,-9.9467075,-16.172638)"
           id="text1384"
           style="font-style:normal;font-weight:normal;font-size:40px;line-height:1.25;font-family:sans-serif;letter-spacing:0px;white-space:pre;shape-inside:url(#rect1386);fill:#000000;fill-opacity:1;stroke:none"><tspan
             x="107.93555"
             y="481.18462"
             id="tspan2531"><tspan
   style="fill:#0000ff"
   id="tspan2525">B</tspan>CG<tspan
   style="fill:#00ff01"
   id="tspan2527">4 </tspan>   <tspan
   style="fill:#ff0000"
   id="tspan2529">Ǝ</tspan>S</tspan></text>
        <path
           style="fill:#dddddd;fill-opacity:1;stroke:#000000;stroke-width:0.264583px;stroke-linecap:butt;stroke-linejoin:miter;stroke-opacity:1"
           d="m 60.279343,128.93841 c -4.246766,-0.13292 -2.201783,10.41571 -0.757252,10.02094 1.464893,-0.40033 1.80004,-2.52144 2.296994,-3.98818 0.308864,-0.9116 2.667905,-1.4063 3.155208,0.32812 0.247755,0.88181 1.457177,4.43594 2.599893,3.68529 1.16766,-0.76704 1.344157,-3.99867 1.363051,-6.31042 -0.03987,-1.53769 0.003,-3.58332 -1.994093,-3.71053 -0.718563,-0.0458 -1.59517,0.46875 -2.448442,1.31258 -0.550228,0.54414 -2.062489,0.3129 -2.4232,-0.0505 -0.574098,-0.57842 -0.991643,-1.26224 -1.792159,-1.2873 z"
           id="path80246"
           sodipodi:nodetypes="ssssscssss" />
      </g>
      <path
         style="fill:#000000;fill-opacity:1;stroke:none;stroke-width:1.88976;stroke-linecap:round;stroke-linejoin:round;stroke-miterlimit:4;stroke-dasharray:none;stroke-opacity:1;paint-order:normal"
         id="path90591"
         sodipodi:type="arc"
         sodipodi:cx="59.878803"
         sodipodi:cy="131.39702"
         sodipodi:rx="0.88876319"
         sodipodi:ry="0.88876319"
         sodipodi:start="0"
         sodipodi:end="6.2657505"
         sodipodi:arc-type="arc"
         d="m 60.767566,131.39702 a 0.88876319,0.88876319 0 0 1 -0.884889,0.88875 0.88876319,0.88876319 0 0 1 -0.892603,-0.881 0.88876319,0.88876319 0 0 1 0.877108,-0.89644 0.88876319,0.88876319 0 0 1 0.900249,0.87319"
         sodipodi:open="true" />
      <path
         style="fill:#000000;fill-opacity:1;stroke:none;stroke-width:1.88976;stroke-linecap:round;stroke-linejoin:round;stroke-miterlimit:4;stroke-dasharray:none;stroke-opacity:1;paint-order:normal"
         id="path90591-4"
         sodipodi:type="arc"
         sodipodi:cx="65.682693"
         sodipodi:cy="133.65001"
         sodipodi:rx="0.88876319"
         sodipodi:ry="0.88876319"
         sodipodi:start="0"
         sodipodi:end="6.2657505"
         sodipodi:arc-type="arc"
         sodipodi:open="true"
         d="m 66.571457,133.65001 a 0.88876319,0.88876319 0 0 1 -0.88489,0.88875 0.88876319,0.88876319 0 0 1 -0.892603,-0.881 0.88876319,0.88876319 0 0 1 0.877108,-0.89644 0.88876319,0.88876319 0 0 1 0.90025,0.87319" />
      <path
         style="fill:#ffff00;fill-opacity:1;stroke:none;stroke-width:1.88976;stroke-linecap:round;stroke-linejoin:round;stroke-miterlimit:4;stroke-dasharray:none;stroke-opacity:1;paint-order:normal"
         id="path90591-4-2"
         sodipodi:type="arc"
         sodipodi:cx="67.056419"
         sodipodi:cy="130.46579"
         sodipodi:rx="0.30463952"
         sodipodi:ry="0.30463952"
         sodipodi:start="0"
         sodipodi:end="6.2657505"
         sodipodi:arc-type="arc"
         sodipodi:open="true"
         d="m 67.361059,130.46579 a 0.30463952,0.30463952 0 0 1 -0.303312,0.30464 0.30463952,0.30463952 0 0 1 -0.305956,-0.30198 0.30463952,0.30463952 0 0 1 0.300645,-0.30727 0.30463952,0.30463952 0 0 1 0.308577,0.2993" />
      <path
         style="fill:#1000ff;fill-opacity:1;stroke:none;stroke-width:1.88976;stroke-linecap:round;stroke-linejoin:round;stroke-miterlimit:4;stroke-dasharray:none;stroke-opacity:1;paint-order:normal"
         id="path90758"
         sodipodi:type="arc"
         sodipodi:cx="66.321098"
         sodipodi:cy="131.2753"
         sodipodi:rx="0.28679097"
         sodipodi:ry="0.28679097"
         sodipodi:start="0"
         sodipodi:end="6.2657505"
         sodipodi:arc-type="arc"
         sodipodi:open="true"
         d="m 66.607889,131.2753 a 0.28679097,0.28679097 0 0 1 -0.285541,0.28679 0.28679097,0.28679097 0 0 1 -0.28803,-0.28429 0.28679097,0.28679097 0 0 1 0.28303,-0.28927 0.28679097,0.28679097 0 0 1 0.290498,0.28177" />
      <path
         style="fill:#ff0f00;fill-opacity:1;stroke:none;stroke-width:1.88976;stroke-linecap:round;stroke-linejoin:round;stroke-miterlimit:4;stroke-dasharray:none;stroke-opacity:1;paint-order:normal"
         id="path91174"
         sodipodi:type="arc"
         sodipodi:cx="67.850937"
         sodipodi:cy="131.26663"
         sodipodi:rx="0.27340454"
         sodipodi:ry="0.27340454"
         sodipodi:start="0"
         sodipodi:end="6.2657505"
         sodipodi:arc-type="arc"
         sodipodi:open="true"
         d="m 68.124341,131.26663 a 0.27340454,0.27340454 0 0 1 -0.272212,0.2734 0.27340454,0.27340454 0 0 1 -0.274586,-0.27101 0.27340454,0.27340454 0 0 1 0.269819,-0.27577 0.27340454,0.27340454 0 0 1 0.276938,0.26862" />
      <path
         style="fill:#24ff00;fill-opacity:1;stroke:none;stroke-width:1.88976;stroke-linecap:round;stroke-linejoin:round;stroke-miterlimit:4;stroke-dasharray:none;stroke-opacity:1;paint-order:normal"
         id="path91176"
         sodipodi:type="arc"
         sodipodi:cx="67.088577"
         sodipodi:cy="131.98926"
         sodipodi:rx="0.28679097"
         sodipodi:ry="0.28679097"
         sodipodi:start="0"
         sodipodi:end="6.2657505"
         sodipodi:arc-type="arc"
         sodipodi:open="true"
         d="m 67.375368,131.98926 a 0.28679097,0.28679097 0 0 1 -0.285541,0.28679 0.28679097,0.28679097 0 0 1 -0.28803,-0.28429 0.28679097,0.28679097 0 0 1 0.28303,-0.28927 0.28679097,0.28679097 0 0 1 0.290498,0.28177" />
      <path
         style="fill:none;stroke:#000000;stroke-width:0.264583px;stroke-linecap:butt;stroke-linejoin:miter;stroke-opacity:1"
         d="m 63.205148,130.57824 c -0.73201,-0.83298 0.7607,-0.43518 0.706765,-0.78249 -0.05381,-0.34652 -0.607407,-0.42664 -1.022333,-0.73989 -0.295806,-0.22333 0.04662,-0.48968 1.120224,-0.89924"
         id="path91445"
         sodipodi:nodetypes="cssc" />
      <path
         style="fill:none;stroke:#000000;stroke-width:0.264583px;stroke-linecap:butt;stroke-linejoin:miter;stroke-opacity:1"
         d="m 62.059434,130.18737 c 0,0 0.271439,1.76698 1.195855,1.76702 0.924415,4e-5 1.267246,-1.74916 1.267246,-1.74916"
         id="path91959"
         sodipodi:nodetypes="czc" />
      <path
         style="fill:none;stroke:#000000;stroke-width:0.264583px;stroke-linecap:butt;stroke-linejoin:miter;stroke-opacity:1"
         d="m 62.541346,131.05303 c 0.214182,-0.11602 0.456542,-0.10135 0.678244,-0.0536 0.246943,0.0532 0.318497,0.17974 0.481912,0.14279 0.07807,-0.0177 0.178485,-0.16064 0.178485,-0.16064"
         id="path92659"
         sodipodi:nodetypes="cssc" />
      <path
         style="fill:none;stroke:#000000;stroke-width:0.368248px;stroke-linecap:butt;stroke-linejoin:miter;stroke-opacity:1"
         d="m 60.769738,134.24149 -1.77708,-0.0209 z"
         id="path93425" />
      <path
         style="fill:none;stroke:#000000;stroke-width:0.368248px;stroke-linecap:butt;stroke-linejoin:miter;stroke-opacity:1"
         d="m 59.880628,135.16567 0.0011,-1.82841 z"
         id="path93895"
         inkscape:transform-center-y="0.38199846"
         inkscape:transform-center-x="1.9870798e-05" />
    </g>
  </g>
</svg>
